<mxfile host="app.diagrams.net" modified="2023-10-12T05:21:44.748Z" agent="Mozilla/5.0 (Macintosh; Intel Mac OS X 10_15_7) AppleWebKit/537.36 (KHTML, like Gecko) Chrome/117.0.0.0 Safari/537.36" version="22.0.4" etag="wYAjxOT7MRQTh4yqbnxT" type="github">
  <diagram name="Page-1" id="Y8Ysqw_o4wGzQnJik1oR">
    <mxGraphModel>
      <root>
        <mxCell id="0" />
        <mxCell id="1" parent="0" />
      </root>
    </mxGraphModel>
  </diagram>
</mxfile>
